<?xml version="1.0" standalone="no"?>
<!DOCTYPE svg PUBLIC "-//W3C//DTD SVG 20010904//EN"
 "http://www.w3.org/TR/2001/REC-SVG-20010904/DTD/svg10.dtd">
<svg version="1.0" xmlns="http://www.w3.org/2000/svg"
 width="700.000000pt" height="700.000000pt" viewBox="0 0 700.000000 700.000000"
 preserveAspectRatio="xMidYMid meet">
<metadata>
Created by potrace 1.11, written by Peter Selinger 2001-2013
</metadata>
<g transform="translate(0.000000,700.000000) scale(0.100000,-0.100000)"
fill="#000000" stroke="none">
<path d="M870 5250 l0 -290 2630 0 2630 0 0 290 0 290 -2630 0 -2630 0 0 -290z"/>
<path d="M877 4373 c-4 -3 -7 -136 -7 -295 l0 -288 2630 0 2630 0 -2 293 -3
292 -2621 3 c-1441 1 -2624 -1 -2627 -5z"/>
<path d="M872 2918 l3 -293 2625 0 2625 0 3 293 2 292 -2630 0 -2630 0 2 -292z"/>
<path d="M870 1750 l0 -290 2630 0 2630 0 0 290 0 290 -2630 0 -2630 0 0 -290z"/>
</g>
</svg>
